<svg viewBox="0 0 864 203.0467" xmlns="http://www.w3.org/2000/svg">
  <g id="black-rgb">
    <path style="fill: #192638;fill-rule: evenodd" d="M190.4016,52.998,143.9125,0,97.4233,52.998h29.5113v66.0575a29.5113,29.5113,0,0,1-59.0226,0V36.02H0v33.956H33.956v49.0791a63.4673,63.4673,0,0,0,126.9346,0V52.998Z" id="logoMark"></path>
    <g id="type">
      <path style="fill: #192638" d="M270.0976,109.6643V157.28c0,16.3152-10.3643,25.2432-26.3733,25.2432-15.9061,0-26.1674-8.928-26.1674-25.2432V109.6643h12.6216V156.869c0,8.928,4.4132,14.879,13.5458,14.879,9.2355,0,13.6487-5.951,13.6487-14.879V109.6643Z" id="type_CompoundPathItem_"></path>
      <path style="fill: #192638" d="M294.2083,181.4971H281.8942V130.3927h12.3141v8.928c3.3861-6.8752,8.825-9.9537,15.5985-9.9537,10.4658,0,16.8288,6.26,16.8288,18.2665v33.8636h-12.417V151.02c0-7.2857-2.6679-10.8778-9.1325-10.8778-5.9525,0-10.8778,4.4132-10.8778,13.3411Z" id="type_CompoundPathItem_2"></path>
      <path style="fill: #192638" d="M337.6112,186.6284h12.1081c.9241,3.4891,3.7966,5.6435,10.3642,5.6435,7.5947,0,11.0837-3.6937,11.0837-12.5186v-6.6706c-2.6679,5.6435-7.9022,8.4144-14.5728,8.4144-11.1853,0-19.7027-8.0039-19.7027-22.9872v-6.0541c0-15.0849,8.5174-23.0888,19.7027-23.0888,7.0811,0,12.0065,3.1815,14.5728,8.4144v-7.3887h12.4171v49.3606c0,15.5971-8.7234,23.2934-22.9873,23.2934C346.7437,203.0467,338.8415,196.5821,337.6112,186.6284Zm12.0065-33.659v4.9253c0,7.9023,3.386,12.8276,10.7747,12.8276,6.7722,0,10.7748-4.31,10.7748-12.8276v-5.2329c0-7.6963-4.2072-12.52-11.0837-12.52C353.0037,140.1418,349.6177,145.17,349.6177,152.9694Z" id="type_CompoundPathItem_3"></path>
      <path style="fill: #192638" d="M419.9,114.8972c0-4.2072,3.1815-7.08,7.7993-7.08s7.7992,2.8726,7.7992,7.08c0,4.1056-3.1815,6.9781-7.7992,6.9781S419.9,119.0028,419.9,114.8972Zm1.6422,15.4955h12.3141v51.1044H421.5423Z" id="type_CompoundPathItem_4"></path>
      <path style="fill: #192638" d="M501.2705,182.0106H492.24c-12.6216,0-18.0605-5.3372-18.0605-18.3694V140.86h-7.5947V130.3927h7.5947v-14.776h12.417v14.776h14.6745V140.86H486.596v22.7813c0,4.9253,1.95,8.0038,8.2085,8.0038h6.466Z" id="type_CompoundPathItem_5"></path>
      <path style="fill: #192638" d="M523.4328,181.4971H511.1187V130.3927h12.3141v8.7234c3.386-6.5676,8.4144-9.7491,14.879-9.7491h2.4633v12.314h-3.1815c-8.2084,0-14.1608,4.2073-14.1608,13.5458Z" id="type_CompoundPathItem_6"></path>
      <path style="fill: #192638" d="M574.6367,175.2371c-2.462,4.9253-6.8752,7.2857-14.4684,7.2857-10.16,0-16.3167-5.3359-16.3167-14.1609V165.591c0-7.6963,5.3359-13.34,19.1892-13.34h11.5959v-2.5663c0-6.5676-2.36-9.5431-8.5174-9.5431-5.6435,0-7.9009,2.565-8.5174,6.26H545.3908c1.4363-10.16,7.7993-17.0348,21.55-17.0348,12.9306,0,20.1133,6.054,20.1133,19.0876v33.0425h-12.417Zm0-12.9292V159.434H564.683c-6.157,0-8.4144,2.36-8.4144,6.157v1.6422c0,4.2072,2.4634,6.4646,8.21,6.4646C570.943,173.6978,574.6367,170.5163,574.6367,162.3079Z" id="type_CompoundPathItem_7"></path>
      <path style="fill: #192638" d="M634.4606,140.86H614.3473v40.6372H601.93V140.86H594.234V130.3927H601.93v-5.7464c0-12.0065,6.26-18.5741,19.4982-18.5741h4.7193v10.3642h-3.6936c-6.3616,0-8.1069,3.3875-8.1069,8.4158v5.54h32.53v51.1044H634.4606Zm-1.6422-25.9627c0-4.2072,3.1815-7.08,7.9022-7.08,4.6178,0,7.7993,2.8726,7.7993,7.08,0,4.1056-3.1815,6.9781-7.7993,6.9781C636,121.8753,632.8184,119.0028,632.8184,114.8972Z" id="type_CompoundPathItem_8"></path>
      <path style="fill: #192638" d="M679.2984,160.5627l-6.4646,7.2857v13.6487H660.52V106.5858h12.314v45.3579l18.6771-21.551h14.2638l-18.1635,20.73,21.242,30.3745H693.2547Z" id="type_CompoundPathItem_9"></path>
      <path style="fill: #192638" d="M734.1953,160.5627l-6.4646,7.2857v13.6487H715.4166V106.5858h12.3141v45.3579l18.677-21.551h14.2639l-18.1635,20.73,21.242,30.3745H748.1516Z" id="type_CompoundPathItem_10"></path>
      <path style="fill: #192638" d="M788.0668,182.5228c-13.6487,0-22.8843-8.0038-22.8843-22.9858v-7.1842c0-14.9819,9.031-22.9858,23.0889-22.9858,13.4441,0,22.0631,8.3114,22.0631,23.6024v5.8494H777.9071c.103,1.3333.206,2.668.4106,3.9.8211,5.951,4.2072,9.44,10.4672,9.44.3076,0,.7181-.103,1.0257-.103,4.7208-.3076,7.1841-2.77,8.1069-5.9511h12.1094C808.4877,176.4688,800.3808,182.5228,788.0668,182.5228Zm-8.928-31.2986H798.431c-.4106-7.9009-3.3861-11.596-10.16-11.596s-10.0567,4.31-10.3643,11.2884Z" id="type_CompoundPathItem_11"></path>
      <path style="fill: #192638" d="M831.5727,181.4971H819.2586V130.3927h12.3141v8.928c3.3861-6.8752,8.8249-9.9537,15.5985-9.9537,10.4658,0,16.8288,6.26,16.8288,18.2665v33.8636H851.583V151.02c0-7.2857-2.668-10.8778-9.1326-10.8778-5.9524,0-10.8777,4.4132-10.8777,13.3411Z" id="type_CompoundPathItem_12"></path>
    </g>
  </g>
</svg>
